# xmcd CD database file
#
# Track frame offsets:
#	150
#	18233
#	37738
#	53505
#	71550
#	88870
#
# Disc length: 1410 seconds
#
# Revision: 0
# Processed by: cddbd v1.5.1PL2 Copyright (c) Steve Scherf et al.
# Submitted via: CDex 1.51
#
DISCID=3e058006
DTITLE=Bivattchee - もしも世界が終わったとしても
DYEAR=2005
DGENRE=Rock
TTITLE0=もしも世界が終わったとしても
TTITLE1=Love ＆ Sun
TTITLE2=俺の靴底に地球が張り付いて
TTITLE3=R＆R music
TTITLE4=One Way
TTITLE5=もしも世界が終わったとしても
EXTD=YEAR: 2005
EXTT0=
EXTT1=
EXTT2=
EXTT3=
EXTT4=
EXTT5=
PLAYORDER=
